<svg id="SvgjsSvg1001" width="288" height="288" xmlns="http://www.w3.org/2000/svg" version="1.1" xmlnsXlink="http://www.w3.org/1999/xlink" xmlnsSvgjs="http://svgjs.com/svgjs"><defs id="SvgjsDefs1002"></defs><g id="SvgjsG1008"><svg xmlns="http://www.w3.org/2000/svg" enable-background="new 0 0 512 512" viewBox="0 0 512 512" width="288" height="288"><path d="M72 16c-2.208 0-4 1.788-4 4v472c0 2.212 1.792 4 4 4s4-1.788 4-4V20C76 17.788 74.208 16 72 16zM440 16c-2.208 0-4 1.788-4 4v472c0 2.212 1.792 4 4 4s4-1.788 4-4V20C444 17.788 442.208 16 440 16z" fill="#ffa500" class="color000 svgShape"></path><path d="M440.084 0H71.916c-6.616 0-12 5.384-12 12s5.384 12 12 12H88c2.208 0 4-1.788 4-4s-1.792-4-4-4H71.916c-2.204 0-4-1.792-4-4s1.796-4 4-4h368.168c2.204 0 4 1.792 4 4s-1.796 4-4 4H120c-2.208 0-4 1.788-4 4s1.792 4 4 4h320.084c6.616 0 12-5.384 12-12S446.7 0 440.084 0zM440.084 488H120c-2.208 0-4 1.788-4 4 0 2.212 1.792 4 4 4h320.084c2.204 0 4 1.792 4 4s-1.796 4-4 4H71.916c-2.204 0-4-1.792-4-4s1.796-4 4-4H88c2.208 0 4-1.788 4-4 0-2.212-1.792-4-4-4H71.916c-6.616 0-12 5.384-12 12 0 6.616 5.384 12 12 12h368.168c6.616 0 12-5.384 12-12C452.084 493.384 446.7 488 440.084 488zM308.128 108H120c-2.208 0-4 1.788-4 4s1.792 4 4 4h188.128c2.1 0 3.872 1.94 3.872 4.244V392.54c0 2.388-1.944 3.46-3.872 3.46H72c-2.208 0-4 1.788-4 4 0 2.212 1.792 4 4 4h236.128c6.768 0 11.872-4.924 11.872-11.46V120.244C320 113.492 314.672 108 308.128 108zM88 108H72c-2.208 0-4 1.788-4 4s1.792 4 4 4h16c2.208 0 4-1.788 4-4S90.208 108 88 108z" fill="#ffa500" class="color000 svgShape"></path></svg></g></svg>