<svg id="SvgjsSvg1001" width="288" height="288" xmlns="http://www.w3.org/2000/svg" version="1.1" xmlnsXlink="http://www.w3.org/1999/xlink" xmlnsSvgjs="http://svgjs.com/svgjs"><defs id="SvgjsDefs1002"></defs><g id="SvgjsG1008"><svg xmlns="http://www.w3.org/2000/svg" width="288" height="288" fill="none" viewBox="0 0 23 23"><path stroke="#ffa500" stroke-linecap="round" stroke-linejoin="round" d="M6.01729 3.42395L16.9821 3.42395L17.1428 17.2267C17.1557 18.3403 16.2566 19.25 15.1429 19.25H7.85643C6.74276 19.25 5.8436 18.3403 5.85657 17.2268L6.01729 3.42395Z" clip-rule="evenodd" fill="#ffffff" class="color000 svgShape colorStroke349E44 svgStroke"></path><path stroke="#ffa500" stroke-linecap="round" stroke-linejoin="round" d="M16.864 8.08453C16.1832 8.08453 16.1832 7.49524 15.5026 7.49524C14.8218 7.49524 14.8218 8.08453 14.1413 8.08453C13.4605 8.08453 13.4605 7.49524 12.7797 7.49524C12.0989 7.49524 12.0989 8.08453 11.4178 8.08453C10.7373 8.08453 10.7373 7.49524 10.0567 7.49524C9.37569 7.49524 9.37569 8.08453 8.6944 8.08453C8.01287 8.08453 8.01287 7.49524 7.33109 7.49524C6.64955 7.49524 6.64955 8.08453 5.96777 8.08453" fill="#ffffff" class="color000 svgShape colorStroke349E44 svgStroke"></path></svg></g></svg>