<svg id="SvgjsSvg1001" width="288" height="288" xmlns="http://www.w3.org/2000/svg" version="1.1" xmlnsXlink="http://www.w3.org/1999/xlink" xmlnsSvgjs="http://svgjs.com/svgjs"><defs id="SvgjsDefs1002"></defs><g id="SvgjsG1008"><svg xmlns="http://www.w3.org/2000/svg" width="288" height="288" fill="none" viewBox="0 0 23 23"><path stroke="#ffa500" stroke-linecap="round" stroke-linejoin="round" d="M11.6186 3.05096V19.92M11.6602 5.64144L13.3985 3.91968M11.5985 5.69239L9.80176 3.87689M11.6602 17.4197L13.3985 19.1414M11.5985 17.3769L9.80176 19.1924M17.9114 5.75551L5.9832 17.6837M16.1097 7.61713L18.5564 7.62888M16.0297 7.60926L16.043 5.05499M7.78094 15.9456L7.7927 18.3923M7.76716 15.8715L5.21289 15.8847M5.25612 5.58867L17.1843 17.5169M7.11786 7.39056L7.12961 4.94387M7.10993 7.47052L4.55566 7.45728M15.4466 15.7191L17.8933 15.7073M15.3725 15.7327L15.3857 18.287M20.1143 12.0055L3.24525 12.0055M17.5234 12.0477L19.2451 13.7861M17.4726 11.9856L19.2881 10.1888M5.7452 12.0477L4.02344 13.7861M5.78816 11.9856L3.97266 10.1888" fill="#ffffff" class="color000 svgShape colorStroke349E44 svgStroke"></path></svg></g></svg>