<svg id="SvgjsSvg1001" width="288" height="288" xmlns="http://www.w3.org/2000/svg" version="1.1" xmlnsXlink="http://www.w3.org/1999/xlink" xmlnsSvgjs="http://svgjs.com/svgjs"><defs id="SvgjsDefs1002"></defs><g id="SvgjsG1008"><svg xmlns="http://www.w3.org/2000/svg" enable-background="new 0 0 201.901 201.901" viewBox="0 0 201.901 201.901" width="288" height="288"><path fill="#ffa500" d="M158.693,28.756h-2.265C155.666,12.823,131.047,0,100.902,0C70.747,0,46.11,12.823,45.362,28.756
			h-2.151c-16.044,0-29.103,13.059-29.103,29.118v114.91c0,16.055,13.059,29.118,29.103,29.118H158.69
			c16.055,0,29.103-13.059,29.103-29.118V57.87C187.797,41.815,174.748,28.756,158.693,28.756z M100.902,5.315
			c27.686,0,50.226,10.851,50.226,24.204c0,13.338-22.54,24.204-50.226,24.204c-27.7,0-50.24-10.865-50.24-24.204
			C50.666,16.169,73.205,5.315,100.902,5.315z M139.997,50.53c-9.366,7.09-23.62,11.449-39.095,11.449
			c-15.489,0-29.74-4.359-39.11-11.449c10.203,5.383,24.121,8.507,39.11,8.507C115.894,59.037,129.798,55.916,139.997,50.53z
			 M182.478,172.78c0,13.116-10.672,23.785-23.785,23.785H43.215c-13.116,0-23.774-10.669-23.774-23.785V57.87
			c0-13.116,10.661-23.785,23.774-23.785h2.344c2.122,18.721,26.047,33.208,55.343,33.208c29.286,0,53.207-14.487,55.333-33.208
			h2.459c13.113,0,23.785,10.672,23.785,23.785V172.78z" class="color010002 svgShape"></path><ellipse cx="82.75" cy="15.278" fill="#ffa500" rx="4.413" ry="2.026" class="color010002 svgShape"></ellipse><ellipse cx="95.004" cy="15.278" fill="#ffa500" rx="4.413" ry="2.026" class="color010002 svgShape"></ellipse><path fill="#ffa500" d="M106.052,17.304c2.444,0,4.427-0.902,4.427-2.026s-1.986-2.026-4.427-2.026
			c-2.43,0-4.413,0.902-4.413,2.026S103.622,17.304,106.052,17.304z" class="color010002 svgShape"></path><ellipse cx="118.295" cy="15.278" fill="#ffa500" rx="4.423" ry="2.026" class="color010002 svgShape"></ellipse><path fill="#ffa500" d="M64.974 27.672c2.444 0 4.427-.916 4.427-2.04 0-1.109-1.986-2.026-4.427-2.026-2.43 0-4.413.916-4.413 2.026C60.561 26.759 62.544 27.672 64.974 27.672zM77.228 27.672c2.441 0 4.413-.916 4.413-2.04 0-1.109-1.972-2.026-4.413-2.026-2.444 0-4.413.916-4.413 2.026C72.815 26.759 74.784 27.672 77.228 27.672zM83.863 25.632c0 1.124 1.983 2.04 4.413 2.04 2.444 0 4.427-.916 4.427-2.04 0-1.109-1.986-2.026-4.427-2.026C85.846 23.606 83.863 24.522 83.863 25.632zM97.03 25.632c0 1.124 1.986 2.04 4.413 2.04 2.444 0 4.427-.916 4.427-2.04 0-1.109-1.986-2.026-4.427-2.026C99.016 23.606 97.03 24.522 97.03 25.632zM109.191 25.632c0 1.124 1.972 2.04 4.409 2.04 2.444 0 4.413-.916 4.413-2.04 0-1.109-1.972-2.026-4.413-2.026C111.163 23.606 109.191 24.522 109.191 25.632zM121.445 25.632c0 1.124 1.972 2.04 4.413 2.04 2.441 0 4.409-.916 4.409-2.04 0-1.109-1.968-2.026-4.409-2.026C123.417 23.606 121.445 24.522 121.445 25.632zM136.902 27.672c2.444 0 4.413-.916 4.413-2.04 0-1.109-1.972-2.026-4.413-2.026-2.441 0-4.409.916-4.409 2.026C132.493 26.759 134.461 27.672 136.902 27.672z" class="color010002 svgShape"></path><ellipse cx="83.223" cy="36.333" fill="#ffa500" rx="4.413" ry="2.026" class="color010002 svgShape"></ellipse><ellipse cx="95.38" cy="36.333" fill="#ffa500" rx="4.427" ry="2.026" class="color010002 svgShape"></ellipse><ellipse cx="107.634" cy="36.333" fill="#ffa500" rx="4.413" ry="2.026" class="color010002 svgShape"></ellipse><ellipse cx="118.682" cy="36.333" fill="#ffa500" rx="4.413" ry="2.026" class="color010002 svgShape"></ellipse></svg></g></svg>