<svg id="SvgjsSvg1001" width="288" height="288" xmlns="http://www.w3.org/2000/svg" version="1.1" xmlnsXlink="http://www.w3.org/1999/xlink" xmlnsSvgjs="http://svgjs.com/svgjs"><defs id="SvgjsDefs1002"></defs><g id="SvgjsG1008"><svg xmlns="http://www.w3.org/2000/svg" width="288" height="288" fill="none" viewBox="0 0 23 23"><path fill="#ffa500" fill-rule="evenodd" d="M8.47477 2.19867C8.74022 2.27479 8.8937 2.55168 8.81758 2.81712L8.16123 5.10611L18.7909 8.15412L19.4472 5.86512C19.5233 5.59968 19.8002 5.4462 20.0657 5.52231C20.3311 5.59843 20.4846 5.87532 20.4085 6.14076L19.4645 9.43299L19.4596 9.44891L17.0411 17.8833L17.0368 17.8994L16.0927 21.1916C16.0166 21.4571 15.7397 21.6106 15.4743 21.5345C15.2088 21.4583 15.0553 21.1814 15.1315 20.916L15.7878 18.627L5.15817 15.579L4.50181 17.868C4.4257 18.1334 4.14881 18.2869 3.88336 18.2108C3.61792 18.1347 3.46444 17.8578 3.54055 17.5924L4.33473 14.8227L4.48458 14.3001L6.91229 5.83371L7.06214 5.31111L7.85632 2.54148C7.93244 2.27604 8.20933 2.12256 8.47477 2.19867ZM5.44584 14.5758L5.43381 14.6177L16.0632 17.6657L18.515 9.1153L7.88559 6.06738L7.87355 6.10935L5.44584 14.5758Z" clip-rule="evenodd" class="color349E44 svgShape"></path><path stroke="#ffa500" stroke-linecap="round" stroke-linejoin="round" d="M15.5914 21.1259C14.8672 20.9183 15.0171 20.3954 14.2932 20.1878 13.569 19.9801 13.419 20.503 12.6951 20.2955 11.9709 20.0878 12.1208 19.5649 11.3966 19.3572 10.6724 19.1496 10.5225 19.6725 9.798 19.4647 9.07406 19.2571 9.224 18.7343 8.50005 18.5267 7.77559 18.3189 7.62565 18.8418 6.90093 18.634 6.17594 18.4261 6.32588 17.9032 5.60063 17.6953 4.87564 17.4874 4.7257 18.0103 4.00045 17.8023M8.35742 2.60687C9.08163 2.81453 8.93169 3.33742 9.65563 3.54501 10.3798 3.75267 10.5298 3.22978 11.2537 3.43737 11.9779 3.64503 11.828 4.16792 12.5522 4.37558 13.2764 4.58325 13.4263 4.06036 14.1508 4.26809 14.8747 4.47568 14.7248 4.99857 15.4487 5.20616 16.1732 5.41389 16.3231 4.891 17.0479 5.09882 17.7728 5.3067 17.6229 5.82959 18.3482 6.03755 19.0731 6.24544 19.2231 5.72255 19.9483 5.93051" fill="#ffffff" class="color000 svgShape colorStroke349E44 svgStroke"></path></svg></g></svg>