<svg id="SvgjsSvg1001" width="288" height="288" xmlns="http://www.w3.org/2000/svg" version="1.1" xmlnsXlink="http://www.w3.org/1999/xlink" xmlnsSvgjs="http://svgjs.com/svgjs"><defs id="SvgjsDefs1002"></defs><g id="SvgjsG1008"><svg xmlns="http://www.w3.org/2000/svg" width="288" height="288" fill="none" viewBox="0 0 23 23"><path stroke="#ffa500" stroke-linecap="round" stroke-linejoin="round" d="M12.5 8.9498C12.8697 6.02874 15.7005 5.84497 15.7005 5.84497 15.7005 5.84497 15.269 8.51894 12.5 8.9498zM11.6954 5.62666C9.89139 3.29971 11.7631 1.16809 11.7631 1.16809 11.7631 1.16809 13.3488 3.36401 11.6954 5.62666zM12.5 12.9498C12.8697 10.0287 15.7005 9.84497 15.7005 9.84497 15.7005 9.84497 15.269 12.5189 12.5 12.9498zM12.5 16.9498C12.8697 14.0287 15.7005 13.845 15.7005 13.845 15.7005 13.845 15.269 16.5189 12.5 16.9498zM10.9785 8.9498C10.6088 6.02874 7.77797 5.84497 7.77797 5.84497 7.77797 5.84497 8.2095 8.51894 10.9785 8.9498zM10.9785 12.9498C10.6088 10.0287 7.77797 9.84497 7.77797 9.84497 7.77797 9.84497 8.2095 12.5189 10.9785 12.9498zM10.9785 16.9498C10.6088 14.0287 7.77797 13.845 7.77797 13.845 7.77797 13.845 8.2095 16.5189 10.9785 16.9498z" clip-rule="evenodd" fill="#ffffff" class="color000 svgShape colorStroke349E44 svgStroke"></path><path stroke="#ffa500" stroke-linecap="round" stroke-linejoin="round" d="M11.8624 18.8718L11.8584 22.1098" fill="#ffffff" class="color000 svgShape colorStroke349E44 svgStroke"></path></svg></g></svg>