<svg id="SvgjsSvg1001" width="288" height="288" xmlns="http://www.w3.org/2000/svg" version="1.1" xmlnsXlink="http://www.w3.org/1999/xlink" xmlnsSvgjs="http://svgjs.com/svgjs"><defs id="SvgjsDefs1002"></defs><g id="SvgjsG1008"><svg xmlns="http://www.w3.org/2000/svg" enable-background="new 0 0 228.728 228.728" viewBox="0 0 228.728 228.728" width="288" height="288"><path fill="#ffa500" d="M192.876 130.009c-1.457-11.216-6.61-19.469-14.509-23.22-1.593-.759-3.307-1.324-5.075-1.689.512-6.392.777-11.674.777-15.289v-3.547H35.443v3.547c0 23.127 9.387 123.757 29.193 138.233l.931.684h76.029l.952-.676c5.565-4.087 10.89-15.02 15.801-32.517 11.012-5.089 21.459-16.291 27.987-29.987C191.975 153.662 194.301 141.039 192.876 130.009zM68 221.638c-14.451-13.346-24.415-96.289-25.406-128.295h124.329c-.963 31.211-12.873 114.606-27.74 128.295H68zM172.667 112.276c1.02.243 1.882.537 2.663.909 6.005 2.86 9.817 9.488 10.751 18.685.959 9.402-1.235 20.278-6.159 30.624-4.656 9.806-11.56 18.277-19.072 23.481C166.679 161.846 170.752 132.349 172.667 112.276zM92.336 35.721c3.636 1.457 5.698 3.443 6.317 6.07 1.428 6.045-4.277 14.519-8.417 19.229l5.293 4.703c12.537-13.972 15.418-30.177-.544-36.579-3.686-1.478-5.766-3.457-6.342-6.048C87.34 17.311 92.966 9.23 97.063 4.814L91.856 0C79.788 13.016 75.934 29.125 92.336 35.721z" class="color010002 svgShape"></path><path fill="#ffa500" d="M119.478,46.89c3.636,1.464,5.701,3.45,6.317,6.08c1.428,6.027-4.273,14.516-8.407,19.229
			l5.282,4.695c5.837-6.349,12.032-17.042,10.035-25.535c-2.824-12.014-15.21-9.462-16.914-17.089
			c-1.31-5.791,4.327-13.857,8.414-18.277l-5.193-4.824C106.043,25.252,103.863,40.624,119.478,46.89z" class="color010002 svgShape"></path></svg></g></svg>