<svg id="SvgjsSvg1001" width="288" height="288" xmlns="http://www.w3.org/2000/svg" version="1.1" xmlnsXlink="http://www.w3.org/1999/xlink" xmlnsSvgjs="http://svgjs.com/svgjs"><defs id="SvgjsDefs1002"></defs><g id="SvgjsG1008"><svg xmlns="http://www.w3.org/2000/svg" enable-background="new 0 0 490 490" viewBox="0 0 490 490" width="288" height="288"><path d="M258.2 223.4L238 203.2c7.4-11.3 12.8-24.1 15.5-37.7h28.8v-49h-28.8c-3.1-13.6-8.2-26.4-15.5-37.7l20.2-20.2L224 24.5l-20.2 20.2c-11.3-7.4-24.1-12.8-37.7-15.5V0h-49v28.8c-13.6 3.1-26.4 8.2-37.7 15.5L59.3 24.1 24.7 58.3l20.2 20.2c-7.4 11.3-12.8 24.1-15.5 37.7H.6v48.6h28.8c3.1 13.6 8.2 26.4 15.5 37.7l-20.2 20.2 34.2 34.2 20.2-20.2c11.3 7.4 24.1 12.8 37.7 15.5V281h48.6v-28.8c13.6-3.1 26.4-8.2 37.7-15.5l20.2 20.2L258.2 223.4zM141.2 207.1c-36.5 0-66.4-29.9-66.4-66.4s29.9-66.4 66.4-66.4 66.4 29.5 66.4 66.4S178.2 207.1 141.2 207.1zM462.6 331.1l26.8-10.5-17.9-45.1L444.7 286c-7.8-11.7-17.5-21.4-28.4-29.5l11.3-26.4-44.7-19.4L372.1 237c-13.2-2.7-27.2-3.1-40.8-.8l-10.9-26.4-45.1 17.9 10.5 26.8c-11.7 7.8-21.4 17.5-29.5 28.4l-26.4-11.3-19.4 44.7 26.4 11.3c-2.7 13.2-3.1 27.2-.8 40.8l-26.8 10.5 17.9 45.1 26.8-10.5c7.8 11.7 17.5 21.4 28.4 29.5L271 469.4l44.7 19.4 11.3-26.4c13.2 2.7 27.2 3.1 40.8.8l10.5 26.8 45.1-17.9-10.5-26.8c11.7-7.8 21.4-17.5 29.5-28.4l26.4 11.3 19.4-44.7-26.4-11.3C464.5 358.7 464.9 345.1 462.6 331.1zM374 411.5c-34.2 13.6-72.7-3.1-86.3-37.3-13.6-34.2 3.1-72.7 37.3-86.3s72.7 3.1 86.3 37.3S408.2 397.9 374 411.5z" fill="#ffffff" class="color000 svgShape"></path></svg></g></svg>