<svg id="SvgjsSvg1001" width="288" height="288" xmlns="http://www.w3.org/2000/svg" version="1.1" xmlnsXlink="http://www.w3.org/1999/xlink" xmlnsSvgjs="http://svgjs.com/svgjs"><defs id="SvgjsDefs1002"></defs><g id="SvgjsG1008" transform="matrix(1,0,0,1,0,0)"><svg xmlns="http://www.w3.org/2000/svg" width="288" height="288" fill="none" viewBox="0 0 23 23"><path stroke="#ffa500" d="M6.50157 5.07284C3.93971 5.80482 4.30722 8.71312 3.50267 11.3816C1.60784 16.6525 5.49394 18.7583 8.11777 18.9819C10.7416 19.2054 14.4532 17.2048 13.9924 13.2392C13.5316 9.2735 9.06344 4.34086 6.50157 5.07284Z" clip-rule="evenodd" fill="#ffffff" class="color000 svgShape colorStroke349E44 svgStroke"></path><path stroke="#ffa500" d="M6.91797 5.00904C15.8017 4.87436 16.7374 8.42898 18.3187 9.27325C19.8309 9.96986 20.4799 10.7103 20.5464 11.3694C20.6129 12.0285 20.2858 13.0894 18.4936 13.3731C16.7014 13.6567 15.0837 15.8282 12.2602 17.6493" fill="#ffffff" class="color000 svgShape colorStroke349E44 svgStroke"></path><path stroke="#ffa500" d="M8.25781 15.7303C9.36238 15.7303 10.2578 14.8349 10.2578 13.7303C10.2578 12.6258 9.36238 11.7303 8.25781 11.7303C7.15324 11.7303 6.25781 12.6258 6.25781 13.7303C6.25781 14.8349 7.15324 15.7303 8.25781 15.7303Z" clip-rule="evenodd" fill="#ffffff" class="color000 svgShape colorStroke349E44 svgStroke"></path></svg></g></svg>